<svg width="74" height="74" viewBox="0 0 74 74" fill="none" xmlns="http://www.w3.org/2000/svg">
<g id="Iconly/Bulk/Calendar">
<g id="Calendar">
<path id="Fill 1" fill-rule="evenodd" clip-rule="evenodd" d="M9.25 52.0154V28.542H64.75V52.2035C64.75 61.8821 58.6578 67.8329 48.9103 67.8329H25.0593C15.4031 67.8329 9.25 61.7587 9.25 52.0154ZM24.5403 44.4308C23.1391 44.4956 21.9816 43.3825 21.9207 41.9672C21.9207 40.5489 23.0173 39.3772 24.4185 39.3125C25.7892 39.3125 26.9163 40.3947 26.9468 41.7792C27.0077 43.2006 25.9111 44.3722 24.5403 44.4308ZM37.0601 44.4308C35.6589 44.4956 34.5013 43.3825 34.4404 41.9672C34.4404 40.5489 35.537 39.3772 36.9382 39.3125C38.309 39.3125 39.436 40.3947 39.4665 41.7792C39.5274 43.2006 38.4308 44.3722 37.0601 44.4308ZM49.4893 55.7767C48.0881 55.7459 46.961 54.5742 46.961 53.1559C46.9306 51.7375 48.0576 50.5689 49.4588 50.5381H49.4893C50.921 50.5381 52.0785 51.7098 52.0785 53.1559C52.0785 54.605 50.921 55.7767 49.4893 55.7767ZM34.4404 53.1563C34.5013 54.5747 35.6589 55.6877 37.0601 55.623C38.4308 55.5644 39.5274 54.3927 39.4665 52.9744C39.436 51.5869 38.309 50.5047 36.9382 50.5047C35.537 50.5694 34.4404 51.738 34.4404 53.1563ZM21.8909 53.1563C21.9518 54.5747 23.1093 55.6877 24.5105 55.623C25.8813 55.5644 26.9779 54.3927 26.917 52.9744C26.8865 51.5869 25.7594 50.5047 24.3887 50.5047C22.9875 50.5694 21.8909 51.738 21.8909 53.1563ZM46.9908 41.9358C46.9908 40.5175 48.0874 39.3766 49.4886 39.3458C50.8593 39.3458 51.9559 40.4527 52.0168 41.8125C52.0473 43.2308 50.9507 44.4025 49.5799 44.4302C48.1787 44.461 47.0212 43.3819 46.9908 41.9666V41.9358Z" fill="#EBECF5"/>
<path id="Fill 4" opacity="0.4" d="M9.26172 28.5431C9.30132 26.7331 9.45362 23.1411 9.73996 21.9848C11.2021 15.4821 16.1672 11.3504 23.2647 10.7615H50.7405C57.777 11.3812 62.8031 15.5406 64.2652 21.9848C64.5485 23.1102 64.7008 26.7301 64.7404 28.5431H9.26172Z" fill="#EBECF5"/>
<path id="Fill 6" d="M25.6082 20.3192C26.9485 20.3192 27.9537 19.3048 27.9537 17.9451V8.544C27.9537 7.18425 26.9485 6.16675 25.6082 6.16675C24.2679 6.16675 23.2627 7.18425 23.2627 8.544V17.9451C23.2627 19.3048 24.2679 20.3192 25.6082 20.3192Z" fill="#EBECF5"/>
<path id="Fill 9" d="M48.3914 20.3192C49.7012 20.3192 50.7369 19.3048 50.7369 17.9451V8.544C50.7369 7.18425 49.7012 6.16675 48.3914 6.16675C47.0511 6.16675 46.0459 7.18425 46.0459 8.544V17.9451C46.0459 19.3048 47.0511 20.3192 48.3914 20.3192Z" fill="#EBECF5"/>
</g>
</g>
</svg>
