<svg width="51" height="62" viewBox="0 0 51 62" fill="none" xmlns="http://www.w3.org/2000/svg">
<path fill-rule="evenodd" clip-rule="evenodd" d="M12.8652 3.41252C20.8243 -1.21207 30.6074 -1.13124 38.4918 3.62426C46.2987 8.47661 51.0436 17.1366 50.9994 26.4524C50.8177 35.7071 45.7299 44.4064 39.3701 51.1315C35.6994 55.0305 31.5931 58.4782 27.1351 61.4041C26.6759 61.6696 26.173 61.8474 25.6511 61.9286C25.1488 61.9072 24.6597 61.7588 24.2277 61.4967C17.4217 57.1002 11.4507 51.4883 6.60206 44.9309C2.54485 39.4571 0.239826 32.844 4.23884e-06 25.9897C-0.00526698 16.656 4.90607 8.03712 12.8652 3.41252ZM17.4622 29.8516C18.801 33.1523 21.9612 35.3052 25.4671 35.3053C27.764 35.3217 29.9718 34.4017 31.5988 32.7503C33.2258 31.0988 34.1367 28.853 34.1286 26.5133C34.1408 22.9421 32.0383 19.7155 28.8028 18.3402C25.5672 16.9649 21.8368 17.7121 19.3534 20.2329C16.87 22.7538 16.1234 26.551 17.4622 29.8516Z" fill="#EBECF5"/>
</svg>
