<svg width="90" height="90" viewBox="0 0 90 90" fill="none" xmlns="http://www.w3.org/2000/svg">
<g id="Iconly/Bulk/2 User">
<g id="2 User">
<path id="Fill 1" d="M35.06 55.7156C20.1957 55.7156 7.5 58.0117 7.5 67.1892C7.5 76.3739 20.115 78.7491 35.06 78.7491C49.9243 78.7491 62.62 76.4529 62.62 67.2754C62.62 58.0908 50.005 55.7156 35.06 55.7156Z" fill="#EBECF5"/>
<path id="Fill 3" opacity="0.4" d="M35.0606 46.9681C45.1841 46.9681 53.2969 39.0231 53.2969 29.109C53.2969 19.1949 45.1841 11.25 35.0606 11.25C24.9407 11.25 16.8242 19.1949 16.8242 29.109C16.8242 39.0231 24.9407 46.9681 35.0606 46.9681Z" fill="#EBECF5"/>
<path id="Fill 5" opacity="0.4" d="M60.6485 29.4341C60.6485 34.4828 59.1 39.1937 56.3848 43.1068C56.1022 43.5093 56.3517 44.0519 56.8434 44.1381C57.5259 44.2495 58.2267 44.3178 58.9422 44.3322C66.0607 44.5155 72.4489 40.0273 74.2138 33.2682C76.83 23.2391 69.1539 14.2341 59.3752 14.2341C58.3148 14.2341 57.2984 14.3419 56.3077 14.5396C56.1719 14.5683 56.0252 14.633 55.9518 14.748C55.8564 14.8953 55.9261 15.0858 56.0215 15.2115C58.9606 19.2469 60.6485 24.159 60.6485 29.4341Z" fill="#EBECF5"/>
<path id="Fill 7" d="M81.6692 56.886C80.3666 54.1659 77.2221 52.3009 72.4373 51.3846C70.1807 50.8456 64.0677 50.0802 58.384 50.188C58.2996 50.1988 58.2519 50.2563 58.2445 50.2922C58.2335 50.3497 58.2592 50.4359 58.3693 50.497C60.9965 51.7691 71.1494 57.3029 69.8725 68.9741C69.8174 69.4844 70.2321 69.9156 70.7494 69.8437C73.2482 69.4952 79.6768 68.1405 81.6692 63.929C82.7737 61.7011 82.7737 59.1139 81.6692 56.886Z" fill="#EBECF5"/>
</g>
</g>
</svg>
